<svg width="100" height="100" xmlns="http://www.w3.org/2000/svg" xmlns:xlink="http://www.w3.org/1999/xlink" overflow="hidden"><g transform="translate(-1015 -35)"><path d="M1073.33 42.7293C1073.24 42.7293 1068.44 57.6663 1062.66 75.897L1052.18 109.035 1045.05 109.123C1041.16 109.153 1037.95 109.093 1037.95 108.977 1037.95 108.83 1042.58 94.862 1048.26 77.8969 1053.92 60.9301 1058.48 46.934 1058.39 46.8176 1058.22 46.5227 1055.98 45.8166 1055.8 45.9931 1055.74 46.0532 1050.82 60.7253 1044.9 78.5729 1035.3 107.506 1034.18 111.093 1034.54 111.592 1034.92 112.152 1035.33 112.182 1044.61 112.122 1049.91 112.122 1054.3 112.064 1054.33 112.034 1054.33 112.005 1058.48 98.9502 1063.52 83.0125 1068.55 67.0763 1072.85 53.5499 1073.06 52.9621 1073.44 51.9048 1073.56 52.2278 1082.99 80.2483 1088.23 95.8331 1092.47 108.681 1092.38 108.742 1092.29 108.83 1089.23 108.8 1085.55 108.712L1078.89 108.505 1076.18 100.156 1073.47 91.8347 1067.41 91.8929 1061.37 91.9814 1061.37 94.6273 1066.38 94.774 1071.35 94.9221 1076.71 111.388 1086.52 111.653C1091.91 111.769 1096.39 111.829 1096.48 111.741 1096.65 111.534 1073.56 42.7293 1073.33 42.7293ZM1065 36C1092.06 36 1114 57.938 1114 85 1114 112.062 1092.06 134 1065 134 1037.94 134 1016 112.062 1016 85 1016 57.938 1037.94 36 1065 36Z" fill="#000000" fill-rule="evenodd"/></g></svg>