<svg width="57" height="56" viewBox="0 0 57 56" fill="none" xmlns="http://www.w3.org/2000/svg">
<path d="M28.5678 0C27.6615 0 26.7553 0.0468749 25.849 0.135416C24.9428 0.223959 24.047 0.354167 23.1563 0.531251C22.2605 0.708333 21.3803 0.932292 20.5105 1.19792C19.6407 1.45833 18.7865 1.76563 17.948 2.11458C17.1042 2.46354 16.2865 2.84896 15.4845 3.27604C14.6824 3.70833 13.9011 4.17187 13.1459 4.67708C12.3907 5.18229 11.6615 5.72396 10.9584 6.30208C10.2553 6.88021 9.58341 7.48958 8.93758 8.13021C8.29696 8.77604 7.68758 9.44792 7.10946 10.151C6.53133 10.8542 5.99487 11.5833 5.48966 12.3385C4.98446 13.0938 4.51571 13.8698 4.08862 14.6719C3.65633 15.474 3.27092 16.2969 2.92196 17.1354C2.573 17.9792 2.27092 18.8333 2.00529 19.7031C1.73966 20.5729 1.52091 21.4531 1.34383 22.3438C1.16675 23.2344 1.03133 24.1354 0.94279 25.0417C0.854248 25.9427 0.807373 26.849 0.807373 27.7604C0.807373 28.6719 0.854248 29.5781 0.94279 30.4792C1.03133 31.3854 1.16675 32.2865 1.34383 33.1771C1.52091 34.0677 1.73966 34.9479 2.00529 35.8177C2.27092 36.6875 2.573 37.5417 2.92196 38.3854C3.27092 39.224 3.65633 40.0469 4.08862 40.849C4.51571 41.6458 4.98446 42.4271 5.48966 43.1823C5.99487 43.9375 6.53133 44.6667 7.10946 45.3698C7.68758 46.0729 8.29696 46.7448 8.93758 47.3906C9.58341 48.0313 10.2553 48.6406 10.9584 49.2188C11.6615 49.7969 12.3907 50.3385 13.1459 50.8438C13.9011 51.349 14.6824 51.8125 15.4845 52.2448C16.2865 52.6719 17.1042 53.0573 17.948 53.4063C18.7865 53.7552 19.6407 54.0625 20.5105 54.3229C21.3803 54.5885 22.2605 54.8073 23.1563 54.9896C24.047 55.1667 24.9428 55.2969 25.849 55.3854C26.7553 55.474 27.6615 55.5208 28.5678 55.5208C29.4792 55.5208 30.3855 55.474 31.2917 55.3854C32.198 55.2969 33.0938 55.1667 33.9845 54.9896C34.8751 54.8073 35.7605 54.5885 36.6303 54.3229C37.5001 54.0625 38.3542 53.7552 39.1928 53.4063C40.0313 53.0573 40.8542 52.6719 41.6563 52.2448C42.4584 51.8125 43.2345 51.349 43.9949 50.8438C44.7501 50.3385 45.4792 49.7969 46.1824 49.2188C46.8855 48.6406 47.5574 48.0313 48.198 47.3906C48.8438 46.7448 49.4532 46.0729 50.0261 45.3698C50.6042 44.6667 51.1459 43.9375 51.6511 43.1823C52.1563 42.4271 52.6251 41.6458 53.0522 40.849C53.4792 40.0469 53.8699 39.224 54.2188 38.3854C54.5626 37.5417 54.8699 36.6875 55.1355 35.8177C55.3959 34.9479 55.6199 34.0677 55.797 33.1771C55.974 32.2865 56.1095 31.3854 56.198 30.4792C56.2865 29.5781 56.3282 28.6719 56.3282 27.7604C56.3282 26.849 56.2865 25.9427 56.198 25.0417C56.1043 24.1354 55.974 23.2344 55.797 22.3438C55.6199 21.4531 55.3959 20.5729 55.1355 19.7031C54.8699 18.8333 54.5626 17.9792 54.2136 17.1354C53.8699 16.2969 53.4792 15.4792 53.0522 14.6771C52.6199 13.875 52.1563 13.0938 51.6511 12.3385C51.1459 11.5833 50.6042 10.8542 50.0261 10.151C49.4532 9.44792 48.8386 8.77604 48.198 8.13021C47.5574 7.48958 46.8803 6.88021 46.1772 6.30208C45.4792 5.72396 44.7501 5.18229 43.9897 4.67708C43.2345 4.17187 42.4584 3.70833 41.6563 3.28125C40.8542 2.84896 40.0313 2.46354 39.1928 2.11458C38.3542 1.76563 37.5001 1.45833 36.6251 1.19792C35.7553 0.932292 34.8751 0.713541 33.9845 0.536459C33.0938 0.354167 32.1928 0.223959 31.2917 0.135416C30.3855 0.0468749 29.4792 0 28.5678 0ZM15.7813 14.0625H41.3542C41.9011 14.0625 42.4324 14.1563 42.9428 14.3437C43.4532 14.5365 43.9167 14.8073 44.3334 15.1667C44.7449 15.5208 45.0834 15.9375 45.349 16.4167C45.6147 16.8906 45.7865 17.401 45.8699 17.9375C45.5053 18.1406 31.448 26.2396 30.5209 26.7708C29.9167 27.1146 29.2657 27.2865 28.5678 27.2865C27.8751 27.2865 27.224 27.1146 26.6199 26.7708C25.7084 26.25 11.6199 18.224 11.2709 18.0104C11.3438 17.4635 11.5105 16.9479 11.7709 16.4635C12.0313 15.974 12.3699 15.5521 12.7865 15.1875C13.198 14.8281 13.6667 14.5469 14.1824 14.3542C14.698 14.1615 15.2292 14.0625 15.7813 14.0625ZM45.922 36.8958C45.9167 37.5 45.8022 38.0833 45.573 38.6406C45.3386 39.1979 45.0105 39.6927 44.5834 40.1198C44.1563 40.5469 43.6615 40.8802 43.1042 41.1094C42.5417 41.3438 41.9636 41.4583 41.3542 41.4583H15.7813C15.1772 41.4583 14.5938 41.3438 14.0365 41.1094C13.4792 40.875 12.9845 40.5469 12.5574 40.1198C12.1303 39.6927 11.8022 39.1979 11.5678 38.6406C11.3386 38.0833 11.2188 37.5 11.2188 36.8958V20.0833L25.724 28.3594C26.6095 28.8646 27.5574 29.1146 28.573 29.1146C29.5886 29.1146 30.5417 28.8646 31.422 28.3594L45.922 20.0156V36.8958Z" fill="#000000"/>
</svg>
