<svg width="58" height="56" viewBox="0 0 58 56" fill="none" xmlns="http://www.w3.org/2000/svg">
<path d="M20.2451 1.71276C23.4675 0.699716 27.4029 0.523619 31.2939 1.08288C35.1842 1.64207 38.9923 2.93132 41.96 4.81042C46.3226 7.6079 50.2369 11.9966 52.5293 16.9139C53.4203 18.8244 53.9483 20.186 54.2588 21.7157C54.5704 23.2513 54.668 24.9803 54.668 27.6307C54.668 29.3518 54.6091 30.9727 54.5127 32.1874C54.4644 32.7962 54.4073 33.2933 54.3457 33.6464C54.3157 33.8184 54.2863 33.9436 54.2607 34.0262C54.2503 34.0276 54.2383 34.0321 54.2236 34.0331C54.1268 34.0393 53.982 34.0265 53.7949 33.9813C53.4227 33.8913 52.9524 33.6876 52.4902 33.37L52.4805 33.3641L52.4717 33.3583L52.2217 33.1962C51.6785 32.8264 51.3987 32.5126 51.2549 32.1678C51.0871 31.7654 51.0658 31.2296 51.2188 30.329L51.2217 30.3163L51.2227 30.3036C51.3831 28.939 51.302 26.2807 51.0625 24.3358L51.0615 24.328L51.0605 24.3192L50.5156 20.8583L50.4492 20.4354H40.6006L40.6387 20.9715L40.876 24.2753V24.2782C40.9338 25.0309 40.9652 25.5874 40.9502 26.0204C40.9352 26.4527 40.8743 26.7157 40.7803 26.9012C40.5985 27.2597 40.2163 27.4916 39.085 27.9305L37.3496 28.5399V26.3212C37.3496 24.9958 37.3521 23.9282 37.1934 23.1122C37.0271 22.2577 36.6701 21.6037 35.9189 21.1747C35.221 20.7761 34.2334 20.6058 32.9033 20.5214C31.5578 20.436 29.7708 20.4354 27.4209 20.4354C24.9801 20.4354 23.1288 20.4208 21.7559 20.537C20.3979 20.652 19.3744 20.9014 18.6904 21.5399C17.9922 22.1918 17.752 23.1476 17.6807 24.3778C17.6092 25.6118 17.7039 27.2645 17.8008 29.4198L18.0381 34.4256L18.0596 34.8885L18.5234 34.9022L26.5479 35.1298L34.0107 35.3495V38.9022H27.1074C25.0713 38.9022 23.2038 38.9795 21.8398 39.1063C21.161 39.1694 20.5918 39.2459 20.1846 39.3348C19.9849 39.3785 19.7976 39.4306 19.6504 39.4969C19.5786 39.5293 19.4879 39.5781 19.4072 39.6512C19.3283 39.7227 19.2042 39.8701 19.2041 40.0917C19.2041 41.0297 19.5774 42.2021 20.1279 43.3934C20.6851 44.599 21.4497 45.8797 22.2881 47.0506C23.1256 48.2203 24.0484 49.296 24.9268 50.0858C25.3657 50.4805 25.8041 50.8132 26.2246 51.0497C26.6385 51.2824 27.0743 51.4442 27.498 51.4442C28.043 51.4442 28.6599 51.1505 29.2393 50.7684C29.8402 50.372 30.4851 49.8233 31.1055 49.201C32.1901 48.113 33.2451 46.7515 33.8799 45.494C33.887 45.6339 33.8938 45.7876 33.8994 45.9549C33.9233 46.6656 33.9336 47.6017 33.9336 48.7928V48.7997L34.0049 54.3036L31.6182 54.7626C20.6375 56.7935 7.51948 49.6965 2.4668 38.8807C1.53782 36.8953 1.01089 35.5156 0.709965 33.9598C0.407405 32.3954 0.328135 30.6285 0.328125 27.8592C0.328125 25.0897 0.407525 23.323 0.709965 21.7684C1.01059 20.2233 1.5365 18.8641 2.46484 16.9178L2.46583 16.9149C5.98609 9.42941 12.0324 4.28709 20.2451 1.71276ZM6.74806 39.6942L8.46583 42.079C9.32721 43.2947 11.2043 45.0421 12.9912 46.4686C13.8917 47.1875 14.7872 47.8388 15.542 48.3133C15.9186 48.5501 16.2689 48.7487 16.5732 48.8895C16.858 49.0213 17.1687 49.1346 17.4414 49.1346C17.5656 49.1346 17.6937 49.0956 17.8018 49.0106C17.9025 48.9312 17.9581 48.8338 17.9893 48.7577C18.047 48.6167 18.0527 48.4686 18.0498 48.3641C18.0436 48.1399 17.9884 47.8544 17.9082 47.5467C17.7445 46.9188 17.4427 46.0675 17.0498 45.1317L17.0449 45.119L17.0381 45.1063C16.6181 44.2427 16.2358 43.3003 15.959 42.4833C15.6738 41.6414 15.5254 41.002 15.5254 40.7118C15.5254 40.3953 15.4749 40.0637 15.2793 39.7733C15.0803 39.4781 14.779 39.2962 14.4229 39.1786C13.7478 38.9557 12.6685 38.9022 11.0518 38.9022H6.17871L6.74806 39.6942ZM4.48048 20.8583L3.93556 24.3192L3.93457 24.328L3.93359 24.3358C3.6917 26.3001 3.69171 29.4173 3.93359 31.3817L3.93457 31.3905L3.93556 31.3983L4.48048 34.8602L4.54688 35.2821H13.9678V20.4354H4.54688L4.48048 20.8583ZM17.4414 6.58288C17.1687 6.58296 16.858 6.69718 16.5732 6.82897C16.2689 6.96983 15.9186 7.16837 15.542 7.40514C14.7872 7.87972 13.8918 8.53094 12.9912 9.24987C11.2045 10.6762 9.32731 12.4228 8.46583 13.6385L6.74806 16.0243L6.17871 16.8163H11.0518C11.8736 16.8163 12.5467 16.8025 13.0918 16.7616C13.6319 16.7211 14.0767 16.652 14.4297 16.5301C14.7913 16.4053 15.0915 16.2118 15.2871 15.9032C15.4767 15.6039 15.5254 15.2622 15.5254 14.9305C15.5254 14.8222 15.556 14.612 15.6338 14.2977C15.7089 13.9943 15.8202 13.6254 15.959 13.2157C16.2365 12.3966 16.6202 11.4328 17.042 10.5282L17.0469 10.5174C17.441 9.61746 17.743 8.78378 17.9072 8.16393C17.9876 7.86035 18.0435 7.57709 18.0498 7.35338C18.0527 7.24916 18.0472 7.10099 17.9893 6.95983C17.958 6.88365 17.9017 6.78615 17.8008 6.7069C17.6929 6.62225 17.5655 6.58288 17.4414 6.58288ZM27.498 4.27331C26.8603 4.27333 26.1879 4.58129 25.5527 5.02331C24.9057 5.47357 24.2388 6.10383 23.6016 6.84167C22.3277 8.31675 21.1264 10.2731 20.4023 12.2186L20.3994 12.2255L20.3965 12.2333C20.086 13.156 19.7938 14.0237 19.5791 14.6796C19.4718 15.0071 19.3829 15.2857 19.3203 15.493C19.2893 15.596 19.2637 15.686 19.2451 15.7577C19.2359 15.7932 19.2264 15.8291 19.2197 15.8622L19.2041 16.0067L19.2119 16.0956C19.2453 16.2897 19.3802 16.3967 19.4199 16.4256C19.4815 16.4704 19.5418 16.4946 19.5723 16.5057C19.6392 16.5302 19.7126 16.5455 19.7725 16.5565C19.8996 16.58 20.0717 16.6004 20.2734 16.619C20.6817 16.6566 21.2636 16.6916 21.9727 16.7206C23.3935 16.7787 25.3491 16.8163 27.498 16.8163C29.647 16.8163 31.6026 16.7787 33.0234 16.7206C33.7327 16.6916 34.3153 16.6566 34.7236 16.619C34.9251 16.6004 35.0966 16.58 35.2236 16.5565C35.2835 16.5455 35.3569 16.5302 35.4238 16.5057C35.4543 16.4946 35.5145 16.4705 35.5762 16.4256C35.6214 16.3927 35.7918 16.2577 35.792 16.0067C35.792 15.5061 35.5858 14.7629 35.2979 13.9647C35.0018 13.1439 34.5925 12.1945 34.1338 11.2499C33.6749 10.3049 33.1633 9.35663 32.6602 8.53893C32.1618 7.72917 31.6543 7.01826 31.2021 6.57018C30.594 5.93197 29.9053 5.37126 29.2695 4.96667C28.9499 4.76323 28.6355 4.59417 28.3457 4.47448C28.0645 4.35838 27.7693 4.27331 27.498 4.27331ZM37.5547 6.58288C37.4306 6.58288 37.3032 6.6222 37.1953 6.7069C37.0944 6.78615 37.0381 6.88365 37.0068 6.95983C36.9489 7.10098 36.9434 7.24918 36.9463 7.35338C36.9526 7.57709 37.0085 7.86035 37.0889 8.16393C37.212 8.62886 37.4129 9.21402 37.6719 9.85729L37.9492 10.5174L37.9541 10.5282C38.3759 11.4329 38.7605 12.3965 39.0381 13.2157C39.1769 13.6254 39.2872 13.9943 39.3623 14.2977C39.4401 14.612 39.4707 14.8222 39.4707 14.9305C39.4707 15.2622 39.5194 15.6039 39.709 15.9032C39.9046 16.2118 40.2048 16.4052 40.5664 16.5301C40.9194 16.6521 41.365 16.7211 41.9053 16.7616C42.4504 16.8025 43.1234 16.8163 43.9453 16.8163H48.8184L48.248 16.0243L46.5303 13.6385C45.5533 12.2717 43.33 10.1601 41.583 8.90514C40.7163 8.28335 39.8468 7.71805 39.1514 7.30651C38.8044 7.10116 38.4946 6.93041 38.2471 6.80944C38.124 6.74931 38.0091 6.69763 37.9082 6.66002C37.847 6.63721 37.7557 6.60518 37.6562 6.59069L37.5547 6.58288Z" fill="#000000"/>
<mask id="mask0_227_750" style="mask-type:luminance" maskUnits="userSpaceOnUse" x="34" y="29" width="24" height="30">
<path d="M34.9999 29H57.4211V59H34.9999V29Z" fill="white"/>
</mask>
<g mask="url(#mask0_227_750)">
<path d="M35.5955 30.3254C35.4379 30.8626 35.362 36.4737 35.4379 42.7738C35.6715 53.2195 35.8233 54.2997 37.0553 54.5274C37.9778 54.6793 39.4375 53.7626 40.9731 51.9175L43.5072 48.9981L46.123 53.9903C47.9622 57.5228 49.1942 58.9066 50.2686 58.9066C52.6508 58.9066 52.5749 56.139 49.8832 50.919C47.8863 46.8435 47.7345 46.2304 48.8848 46.2304C52.1137 46.2304 56.0315 44.6131 56.0315 43.311C56.0315 41.7754 39.2799 29.327 37.283 29.327C36.594 29.327 35.8233 29.7882 35.5955 30.3254Z" fill="#000000"/>
</g>
</svg>
