<svg width="1345" height="247" xmlns="http://www.w3.org/2000/svg" xmlns:xlink="http://www.w3.org/1999/xlink" overflow="hidden"><g transform="translate(-286 -274)"><path d="M364.189 366.219 335.099 458.355 315.326 458.6C304.538 458.684 295.63 458.517 295.63 458.193 295.63 457.786 308.458 418.949 324.229 371.78 339.922 324.605 352.588 285.691 352.343 285.367 351.852 284.547 345.642 282.584 345.151 283.075 344.984 283.242 331.342 324.036 314.913 373.659 288.276 454.105 285.171 464.077 286.152 465.466 287.217 467.022 288.36 467.106 314.099 466.939 328.806 466.939 340.981 466.776 341.065 466.693 341.065 466.615 352.588 430.316 366.558 386.003 380.529 341.694 392.459 304.085 393.033 302.451 394.098 299.511 394.422 300.409 420.573 378.317 435.118 421.649 446.882 457.373 446.636 457.54 446.39 457.786 437.894 457.702 427.68 457.457L409.212 456.882 401.697 433.668 394.176 410.532 377.346 410.694 360.593 410.94 360.593 418.297 374.486 418.704 388.295 419.116 403.168 464.897 430.379 465.633C445.331 465.957 457.751 466.124 457.997 465.879 458.488 465.305 394.422 274 393.769 274 393.524 274 380.206 315.531 364.189 366.219Z" fill-rule="evenodd"/><path d="M527.019 274.006 532.019 274.006 532.019 468.006 527.019 468.006Z" fill-rule="evenodd"/><path d="M680.191 417.017 629.351 417.017C620.34 417.017 613.346 416.014 608.37 413.997 603.404 411.97 599.933 409.11 597.962 405.412 596.001 401.704 595.024 397.303 595.024 392.214L595.024 383.381C595.024 378.059 595.944 373.575 597.796 369.934 599.643 366.293 602.907 363.496 607.583 361.536 612.27 359.565 618.954 358.577 627.634 358.577L697.179 358.577 697.179 356.488C697.179 350.479 695.963 346.465 693.537 344.448 691.106 342.421 687.004 341.407 681.226 341.407L655.547 341.407 655.547 323.017 681.226 323.017C696.258 323.017 706.987 325.799 713.401 331.354 719.816 336.898 723.024 345.684 723.024 357.708L723.024 380.609C723.024 389.618 721.781 396.78 719.299 402.102 716.815 407.429 712.449 411.246 706.201 413.562 699.952 415.869 691.282 417.017 680.191 417.017ZM697.179 382.512 697.179 374.527 630.407 374.527C627.396 374.527 625.027 375.199 623.289 376.533 621.551 377.857 620.681 380.371 620.681 384.063L620.681 390.476C620.681 393.719 621.633 396.01 623.537 397.344 625.451 398.668 628.032 399.33 631.276 399.33L679.839 399.33C685.964 399.33 690.382 398.291 693.103 396.206 695.818 394.127 697.179 389.561 697.179 382.512Z" fill-rule="evenodd"/><path d="M770.036 417.017 743.036 417.017 743.036 292.017 770.036 292.017Z" fill-rule="evenodd"/><path d="M942.039 323.017 879.9 411.127C878.041 413.693 875.777 415.811 873.108 417.483 870.434 419.171 866.779 420.017 862.143 420.017 857.376 420.017 853.69 419.197 851.073 417.566 848.467 415.946 846.177 413.801 844.199 411.127L782.039 323.017 813.046 323.017 862.475 395.279 911.405 323.017Z" fill-rule="evenodd"/><path d="M1014.88 417.017 963.646 417.017C954.564 417.017 947.516 416.014 942.501 413.997 937.496 411.97 933.998 409.11 932.011 405.412 930.035 401.704 929.05 397.303 929.05 392.214L929.05 383.381C929.05 378.059 929.978 373.575 931.845 369.934 933.706 366.293 936.995 363.496 941.708 361.536 946.432 359.565 953.167 358.577 961.915 358.577L1032 358.577 1032 356.488C1032 350.479 1030.78 346.465 1028.33 344.448 1025.88 342.421 1021.75 341.407 1015.93 341.407L990.047 341.407 990.047 323.017 1015.93 323.017C1031.08 323.017 1041.89 325.799 1048.35 331.354 1054.82 336.898 1058.05 345.684 1058.05 357.708L1058.05 380.609C1058.05 389.618 1056.8 396.78 1054.3 402.102 1051.79 407.429 1047.39 411.246 1041.1 413.562 1034.8 415.869 1026.06 417.017 1014.88 417.017ZM1032 382.512 1032 374.527 964.71 374.527C961.675 374.527 959.288 375.199 957.536 376.533 955.784 377.857 954.908 380.371 954.908 384.063L954.908 390.476C954.908 393.719 955.868 396.01 957.786 397.344 959.715 398.668 962.317 399.33 965.585 399.33L1014.53 399.33C1020.7 399.33 1025.15 398.291 1027.9 396.206 1030.63 394.127 1032 389.561 1032 382.512Z" fill-rule="evenodd"/><path d="M1102.96 417.017 1077.06 417.017 1077.06 362.57C1077.06 348.462 1080.45 338.346 1087.22 332.223 1093.99 326.089 1105.32 323.017 1121.2 323.017L1138.06 323.017 1138.06 344.014 1121.89 344.014C1114.71 344.014 1109.76 345.255 1107.04 347.738 1104.32 350.22 1102.96 355.221 1102.96 362.735Z" fill-rule="evenodd"/><path d="M1273.07 379.554 1176.03 379.554 1176.03 383.898C1176.03 389.566 1177.13 393.243 1179.33 394.924 1181.53 396.594 1185.65 397.427 1191.7 397.427L1222.37 397.427 1222.37 417.017 1191.7 417.017C1176.72 417.017 1166.03 414.183 1159.65 408.515 1153.26 402.847 1150.07 393.776 1150.07 381.291L1150.07 359.612C1150.07 350.484 1151.31 343.264 1153.81 337.953 1156.3 332.631 1160.69 328.809 1166.96 326.492 1173.24 324.176 1181.89 323.017 1192.92 323.017L1238.57 323.017C1247.63 323.017 1254.65 324.124 1259.64 326.327 1264.64 328.52 1268.13 331.555 1270.1 335.429 1272.07 339.308 1273.07 343.724 1273.07 348.689ZM1247.11 362.922 1247.11 350.779C1247.11 347.65 1246.32 345.565 1244.76 344.531 1243.19 343.486 1240.44 342.959 1236.49 342.959L1193.28 342.959C1188.96 342.959 1185.54 343.249 1182.99 343.828 1180.44 344.407 1178.64 345.767 1177.59 347.903 1176.55 350.044 1176.03 353.364 1176.03 357.874L1176.03 362.922Z" fill-rule="evenodd"/><path d="M1414.08 417.017 1387.97 417.017 1387.97 364.639C1387.97 359.441 1387.39 355.428 1386.22 352.599 1385.06 349.76 1382.93 347.82 1379.82 346.786 1376.73 345.741 1372.38 345.214 1366.78 345.214L1338.4 345.214C1332.91 345.214 1328.62 345.741 1325.52 346.786 1322.43 347.82 1320.27 349.76 1319.04 352.599 1317.82 355.428 1317.2 359.441 1317.2 364.639L1317.2 417.017 1291.08 417.017 1291.08 363.77C1291.08 353.716 1292.42 345.721 1295.11 339.773 1297.8 333.815 1302.47 329.533 1309.14 326.927 1315.79 324.32 1324.96 323.017 1336.64 323.017L1368.35 323.017C1380.15 323.017 1389.38 324.32 1396.04 326.927 1402.7 329.533 1407.37 333.815 1410.05 339.773 1412.73 345.721 1414.08 353.716 1414.08 363.77Z" fill-rule="evenodd"/><path d="M1466.1 417.017 1439.42 417.017 1439.42 343.723 1426.09 343.723 1426.09 322.643 1439.42 322.643 1439.42 296.017 1466.1 296.017 1466.1 322.643 1496.09 322.643 1496.09 343.723 1466.1 343.723Z" fill-rule="evenodd"/><path d="M1584.74 417.017 1553.27 417.017C1541.68 417.017 1532.59 415.724 1525.99 413.128 1519.38 410.522 1514.74 406.239 1512.08 400.282 1509.42 394.324 1508.1 386.375 1508.1 376.43L1508.1 363.77C1508.1 353.716 1509.42 345.721 1512.08 339.773 1514.74 333.815 1519.38 329.533 1525.99 326.927 1532.59 324.32 1541.68 323.017 1553.27 323.017L1584.74 323.017C1596.43 323.017 1605.58 324.351 1612.18 327.01 1618.79 329.673 1623.43 333.981 1626.09 339.939 1628.76 345.886 1630.1 353.892 1630.1 363.956L1630.1 376.43C1630.1 386.375 1628.76 394.324 1626.09 400.282 1623.43 406.239 1618.79 410.522 1612.18 413.128 1605.58 415.724 1596.43 417.017 1584.74 417.017ZM1604.18 375.747 1604.18 364.639C1604.18 359.332 1603.57 355.288 1602.36 352.516 1601.14 349.734 1598.88 347.82 1595.58 346.786 1592.29 345.741 1587.51 345.214 1581.25 345.214L1556.75 345.214C1550.61 345.214 1545.89 345.741 1542.59 346.786 1539.28 347.82 1537.02 349.734 1535.81 352.516 1534.59 355.288 1533.99 359.332 1533.99 364.639L1533.99 375.747C1533.99 380.95 1534.59 384.932 1535.81 387.704 1537.02 390.476 1539.28 392.416 1542.59 393.517 1545.89 394.624 1550.61 395.172 1556.75 395.172L1581.25 395.172C1587.51 395.172 1592.29 394.624 1595.58 393.517 1598.88 392.416 1601.14 390.476 1602.36 387.704 1603.57 384.932 1604.18 380.95 1604.18 375.747Z" fill-rule="evenodd"/><path d="M715.286 512.001 701.776 512.001 699.3 519.025 695.031 519.025 706.226 487.622 710.877 487.622 722.031 519.025 717.763 519.025ZM714.118 508.653 708.521 492.695 702.924 508.653ZM712.87 480.598 703.427 485.774 703.427 482.693 712.87 477.025Z" fill-rule="evenodd"/><path d="M757.035 485.025 757.035 519.025 753.035 519.025 753.035 485.025Z" fill-rule="evenodd"/><path d="M798.593 515.2 806.518 494.025 811.04 494.025 801.023 519.025 796.078 519.025 786.04 494.025 790.626 494.025Z" fill-rule="evenodd"/><path d="M839.043 506.932C839.043 504.366 839.552 502.113 840.572 500.166 841.591 498.225 842.988 496.721 844.773 495.649 846.552 494.566 848.535 494.025 850.727 494.025 852.889 494.025 854.764 494.504 856.355 495.462 857.946 496.409 859.128 497.6 859.903 499.042L859.903 494.442 864.043 494.442 864.043 519.609 859.903 519.609 859.903 514.925C859.098 516.398 857.895 517.621 856.294 518.589 854.688 519.547 852.817 520.025 850.686 520.025 848.494 520.025 846.516 519.479 844.752 518.381 842.983 517.272 841.591 515.727 840.572 513.739 839.552 511.74 839.043 509.471 839.043 506.932ZM859.903 506.973C859.903 505.089 859.526 503.445 858.782 502.04 858.032 500.624 857.018 499.542 855.743 498.792 854.479 498.043 853.077 497.668 851.543 497.668 850.018 497.668 848.627 498.038 847.362 498.771 846.098 499.495 845.089 500.562 844.344 501.977 843.595 503.382 843.223 505.032 843.223 506.932 843.223 508.862 843.595 510.543 844.344 511.969 845.089 513.385 846.098 514.467 847.362 515.217 848.627 515.966 850.018 516.341 851.543 516.341 853.077 516.341 854.479 515.966 855.743 515.217 857.018 514.467 858.032 513.385 858.782 511.969 859.526 510.543 859.903 508.878 859.903 506.973Z" fill-rule="evenodd"/><path d="M901.128 498.452C901.844 497.061 902.864 495.974 904.194 495.203 905.519 494.421 907.138 494.025 909.047 494.025L909.047 498.229 907.971 498.229C903.407 498.229 901.128 500.716 901.128 505.682L901.128 519.025 897.047 519.025 897.047 494.471 901.128 494.471Z" fill-rule="evenodd"/><path d="M950.366 520.025C948.044 520.025 945.947 519.494 944.065 518.422 942.183 517.34 940.71 515.815 939.646 513.843 938.582 511.876 938.05 509.586 938.05 506.973 938.05 504.407 938.593 502.138 939.687 500.166 940.792 498.183 942.29 496.664 944.188 495.607 946.08 494.556 948.203 494.025 950.55 494.025 952.893 494.025 955.015 494.556 956.913 495.607 958.805 496.664 960.299 498.178 961.393 500.145 962.498 502.102 963.05 504.382 963.05 506.973 963.05 509.586 962.483 511.876 961.352 513.843 960.232 515.815 958.703 517.34 956.77 518.422 954.847 519.494 952.709 520.025 950.366 520.025ZM950.366 516.341C951.839 516.341 953.22 515.997 954.519 515.3 955.813 514.592 956.857 513.541 957.649 512.136 958.452 510.72 958.856 509.003 958.856 506.973 958.856 504.964 958.457 503.257 957.67 501.852 956.892 500.437 955.87 499.391 954.601 498.709 953.343 498.017 951.982 497.668 950.509 497.668 948.996 497.668 947.61 498.017 946.356 498.709 945.114 499.391 944.116 500.437 943.37 501.852 942.618 503.257 942.244 504.964 942.244 506.973 942.244 509.029 942.613 510.762 943.349 512.177 944.086 513.582 945.068 514.628 946.295 515.321 947.533 516.002 948.893 516.341 950.366 516.341Z" fill-rule="evenodd"/><path d="M1057.06 519.025 1052.74 519.025 1035.38 493.591 1035.38 519.025 1031.06 519.025 1031.06 487.025 1035.38 487.025 1052.74 512.417 1052.74 487.025 1057.06 487.025Z" fill-rule="evenodd"/><path d="M1087.06 506.932C1087.06 504.366 1087.59 502.113 1088.65 500.166 1089.72 498.225 1091.17 496.721 1093.02 495.649 1094.87 494.566 1096.94 494.025 1099.22 494.025 1101.46 494.025 1103.41 494.504 1105.07 495.462 1106.72 496.409 1107.95 497.6 1108.76 499.042L1108.76 494.442 1113.06 494.442 1113.06 519.609 1108.76 519.609 1108.76 514.925C1107.92 516.398 1106.67 517.621 1105.01 518.589 1103.34 519.547 1101.39 520.025 1099.17 520.025 1096.89 520.025 1094.84 519.479 1093 518.381 1091.16 517.272 1089.72 515.727 1088.65 513.739 1087.59 511.74 1087.06 509.471 1087.06 506.932ZM1108.76 506.973C1108.76 505.089 1108.37 503.445 1107.59 502.04 1106.81 500.624 1105.76 499.542 1104.43 498.792 1103.12 498.043 1101.66 497.668 1100.06 497.668 1098.48 497.668 1097.03 498.038 1095.72 498.771 1094.4 499.495 1093.35 500.562 1092.58 501.977 1091.8 503.382 1091.41 505.032 1091.41 506.932 1091.41 508.862 1091.8 510.543 1092.58 511.969 1093.35 513.385 1094.4 514.467 1095.72 515.217 1097.03 515.966 1098.48 516.341 1100.06 516.341 1101.66 516.341 1103.12 515.966 1104.43 515.217 1105.76 514.467 1106.81 513.385 1107.59 511.969 1108.37 510.543 1108.76 508.878 1108.76 506.973Z" fill-rule="evenodd"/><path d="M1154.1 520.025C1152.22 520.025 1150.53 519.697 1149.02 519.047 1147.53 518.381 1146.35 517.46 1145.49 516.278 1144.62 515.102 1144.15 513.749 1144.07 512.219L1148.27 512.219C1148.39 513.468 1148.97 514.498 1150 515.3 1151.03 516.091 1152.38 516.486 1154.06 516.486 1155.61 516.486 1156.83 516.143 1157.72 515.445 1158.63 514.738 1159.08 513.843 1159.08 512.76 1159.08 511.667 1158.6 510.856 1157.64 510.325 1156.69 509.783 1155.21 509.253 1153.21 508.722 1151.38 508.238 1149.89 507.743 1148.74 507.244 1147.59 506.734 1146.6 505.984 1145.77 504.995 1144.96 503.996 1144.55 502.685 1144.55 501.061 1144.55 499.771 1144.92 498.595 1145.67 497.522 1146.41 496.456 1147.47 495.607 1148.84 494.983 1150.22 494.348 1151.79 494.025 1153.56 494.025 1156.28 494.025 1158.47 494.733 1160.14 496.148 1161.82 497.554 1162.72 499.479 1162.84 501.936L1158.76 501.936C1158.68 500.619 1158.16 499.562 1157.21 498.771 1156.28 497.97 1155.02 497.564 1153.43 497.564 1151.97 497.564 1150.8 497.892 1149.94 498.542 1149.07 499.183 1148.64 500.02 1148.64 501.061 1148.64 501.884 1148.89 502.56 1149.41 503.101 1149.94 503.642 1150.59 504.074 1151.38 504.392 1152.18 504.715 1153.28 505.074 1154.69 505.474 1156.45 505.964 1157.88 506.442 1158.98 506.911 1160.09 507.384 1161.04 508.097 1161.83 509.055 1162.62 510.002 1163.04 511.235 1163.07 512.76 1163.07 514.15 1162.69 515.393 1161.95 516.486 1161.2 517.584 1160.14 518.454 1158.78 519.089 1157.42 519.713 1155.86 520.025 1154.1 520.025Z" fill-rule="evenodd"/><path d="M1193.07 506.973C1193.07 504.382 1193.59 502.113 1194.64 500.166 1195.69 498.225 1197.14 496.721 1198.99 495.649 1200.86 494.566 1202.99 494.025 1205.4 494.025 1208.5 494.025 1211.07 494.775 1213.08 496.273 1215.09 497.772 1216.43 499.854 1217.07 502.518L1212.55 502.518C1212.12 500.994 1211.28 499.786 1210.02 498.896 1208.78 498.012 1207.24 497.564 1205.4 497.564 1202.99 497.564 1201.05 498.386 1199.58 500.02 1198.1 501.66 1197.36 503.975 1197.36 506.973 1197.36 510.012 1198.1 512.359 1199.58 514.009 1201.05 515.664 1202.99 516.486 1205.4 516.486 1207.24 516.486 1208.77 516.06 1210 515.196 1211.24 514.337 1212.09 513.114 1212.55 511.532L1217.07 511.532C1216.39 514.103 1215.03 516.164 1212.99 517.715 1210.97 519.255 1208.44 520.025 1205.4 520.025 1202.99 520.025 1200.86 519.494 1198.99 518.422 1197.14 517.34 1195.69 515.82 1194.64 513.863 1193.59 511.907 1193.07 509.612 1193.07 506.973Z" fill-rule="evenodd"/><path d="M1250.14 489.737C1249.27 489.737 1248.54 489.461 1247.95 488.903 1247.37 488.351 1247.08 487.673 1247.08 486.881 1247.08 486.089 1247.37 485.417 1247.95 484.859 1248.54 484.307 1249.27 484.025 1250.14 484.025 1250.95 484.025 1251.64 484.307 1252.21 484.859 1252.79 485.417 1253.08 486.089 1253.08 486.881 1253.08 487.673 1252.79 488.351 1252.21 488.903 1251.64 489.461 1250.95 489.737 1250.14 489.737ZM1252.3 493.823 1252.3 519.025 1247.82 519.025 1247.82 493.823Z" fill-rule="evenodd"/><path d="M1314.76 494.025C1316.74 494.025 1318.51 494.426 1320.06 495.223 1321.6 496.01 1322.83 497.193 1323.73 498.777 1324.63 500.361 1325.08 502.285 1325.08 504.545L1325.08 519.025 1320.9 519.025 1320.9 505.134C1320.9 502.686 1320.27 500.808 1319 499.508 1317.75 498.208 1316.05 497.558 1313.92 497.558 1311.71 497.558 1309.95 498.244 1308.64 499.61 1307.34 500.965 1306.7 502.93 1306.7 505.499L1306.7 519.025 1302.5 519.025 1302.5 505.134C1302.5 502.686 1301.87 500.808 1300.62 499.508 1299.37 498.208 1297.67 497.558 1295.54 497.558 1293.33 497.558 1291.57 498.244 1290.26 499.61 1288.96 500.965 1288.32 502.93 1288.32 505.499L1288.32 519.025 1284.08 519.025 1284.08 494.471 1288.32 494.471 1288.32 498.005C1289.15 496.736 1290.27 495.751 1291.68 495.06 1293.1 494.37 1294.66 494.025 1296.36 494.025 1298.5 494.025 1300.39 494.492 1302.04 495.426 1303.68 496.35 1304.91 497.701 1305.73 499.488 1306.43 497.756 1307.61 496.416 1309.25 495.467 1310.9 494.507 1312.74 494.025 1314.76 494.025Z" fill-rule="evenodd"/><path d="M1380.09 506.057C1380.09 506.864 1380.03 507.712 1379.94 508.597L1359.44 508.597C1359.59 511.069 1360.46 513.005 1362.03 514.405 1363.61 515.794 1365.53 516.486 1367.78 516.486 1369.61 516.486 1371.15 516.07 1372.38 515.237 1373.61 514.394 1374.47 513.26 1374.97 511.844L1379.58 511.844C1378.88 514.259 1377.5 516.231 1375.44 517.756 1373.38 519.271 1370.83 520.025 1367.78 520.025 1365.34 520.025 1363.16 519.494 1361.24 518.422 1359.31 517.34 1357.81 515.815 1356.72 513.843 1355.63 511.876 1355.09 509.586 1355.09 506.973 1355.09 504.382 1355.62 502.102 1356.68 500.145 1357.74 498.178 1359.22 496.664 1361.13 495.607 1363.05 494.556 1365.27 494.025 1367.78 494.025 1370.21 494.025 1372.36 494.546 1374.23 495.586 1376.1 496.627 1377.54 498.064 1378.56 499.895 1379.58 501.717 1380.09 503.767 1380.09 506.057ZM1375.67 505.183C1375.67 503.601 1375.31 502.237 1374.59 501.082 1373.88 499.932 1372.91 499.058 1371.68 498.459 1370.45 497.866 1369.08 497.564 1367.59 497.564 1365.43 497.564 1363.6 498.241 1362.09 499.583 1360.57 500.931 1359.7 502.799 1359.48 505.183Z" fill-rule="evenodd"/><path d="M1423.05 494.025C1426.03 494.025 1428.44 494.933 1430.3 496.746 1432.16 498.548 1433.09 501.148 1433.09 504.545L1433.09 519.025 1429.04 519.025 1429.04 505.134C1429.04 502.686 1428.43 500.808 1427.22 499.508 1426 498.208 1424.32 497.558 1422.2 497.558 1420.04 497.558 1418.33 498.239 1417.06 499.589 1415.8 500.93 1415.17 502.889 1415.17 505.458L1415.17 519.025 1411.09 519.025 1411.09 494.471 1415.17 494.471 1415.17 497.965C1415.97 496.721 1417.06 495.751 1418.44 495.06 1419.83 494.37 1421.37 494.025 1423.05 494.025Z" fill-rule="evenodd"/><path d="M1470.54 497.655 1470.54 512.243C1470.54 513.447 1470.79 514.302 1471.31 514.804 1471.83 515.296 1472.73 515.542 1474.01 515.542L1477.09 515.542 1477.09 519.025 1473.33 519.025C1471.01 519.025 1469.27 518.502 1468.11 517.447 1466.94 516.397 1466.36 514.661 1466.36 512.243L1466.36 497.655 1463.09 497.655 1463.09 494.254 1466.36 494.254 1466.36 488.025 1470.54 488.025 1470.54 494.254 1477.09 494.254 1477.09 497.655Z" fill-rule="evenodd"/><path d="M1518.41 520.025C1516.09 520.025 1513.99 519.494 1512.11 518.422 1510.23 517.34 1508.75 515.815 1507.69 513.843 1506.63 511.876 1506.09 509.586 1506.09 506.973 1506.09 504.407 1506.64 502.138 1507.73 500.166 1508.84 498.183 1510.33 496.664 1512.23 495.607 1514.12 494.556 1516.25 494.025 1518.59 494.025 1520.94 494.025 1523.06 494.556 1524.96 495.607 1526.85 496.664 1528.34 498.178 1529.44 500.145 1530.54 502.102 1531.09 504.382 1531.09 506.973 1531.09 509.586 1530.53 511.876 1529.4 513.843 1528.28 515.815 1526.75 517.34 1524.81 518.422 1522.89 519.494 1520.75 520.025 1518.41 520.025ZM1518.41 516.341C1519.88 516.341 1521.26 515.997 1522.56 515.3 1523.86 514.592 1524.9 513.541 1525.69 512.136 1526.5 510.72 1526.9 509.003 1526.9 506.973 1526.9 504.964 1526.5 503.257 1525.71 501.852 1524.94 500.437 1523.91 499.391 1522.65 498.709 1521.39 498.017 1520.03 497.668 1518.55 497.668 1517.04 497.668 1515.65 498.017 1514.4 498.709 1513.16 499.391 1512.16 500.437 1511.41 501.852 1510.66 503.257 1510.29 504.964 1510.29 506.973 1510.29 509.029 1510.66 510.762 1511.39 512.177 1512.13 513.582 1513.11 514.628 1514.34 515.321 1515.58 516.002 1516.94 516.341 1518.41 516.341Z" fill-rule="evenodd"/></g></svg>