<svg width="1345" height="247" xmlns="http://www.w3.org/2000/svg" xmlns:xlink="http://www.w3.org/1999/xlink" overflow="hidden"><g transform="translate(-286 -274)"><path d="M364.189 366.219 335.099 458.355 315.326 458.6C304.538 458.684 295.63 458.517 295.63 458.193 295.63 457.786 308.458 418.949 324.229 371.78 339.922 324.605 352.588 285.691 352.343 285.367 351.852 284.547 345.642 282.584 345.151 283.075 344.984 283.242 331.342 324.036 314.913 373.659 288.276 454.105 285.171 464.077 286.152 465.466 287.217 467.022 288.36 467.106 314.099 466.939 328.806 466.939 340.981 466.776 341.065 466.693 341.065 466.615 352.588 430.316 366.558 386.003 380.529 341.694 392.459 304.085 393.033 302.451 394.098 299.511 394.422 300.409 420.573 378.317 435.118 421.649 446.882 457.373 446.636 457.54 446.39 457.786 437.894 457.702 427.68 457.457L409.212 456.882 401.697 433.668 394.176 410.532 377.346 410.694 360.593 410.94 360.593 418.297 374.486 418.704 388.295 419.116 403.168 464.897 430.379 465.633C445.331 465.957 457.751 466.124 457.997 465.879 458.488 465.305 394.422 274 393.769 274 393.524 274 380.206 315.531 364.189 366.219Z" fill-rule="evenodd"/><path d="M527.019 274.006 532.019 274.006 532.019 468.006 527.019 468.006Z" fill-rule="evenodd"/><path d="M680.191 417.017 629.351 417.017C620.34 417.017 613.346 416.014 608.37 413.997 603.404 411.97 599.933 409.11 597.962 405.412 596.001 401.704 595.024 397.303 595.024 392.214L595.024 383.381C595.024 378.059 595.944 373.575 597.796 369.934 599.643 366.293 602.907 363.496 607.583 361.536 612.27 359.565 618.954 358.577 627.634 358.577L697.179 358.577 697.179 356.488C697.179 350.479 695.963 346.465 693.537 344.448 691.106 342.421 687.004 341.407 681.226 341.407L655.547 341.407 655.547 323.017 681.226 323.017C696.258 323.017 706.987 325.799 713.401 331.354 719.816 336.898 723.024 345.684 723.024 357.708L723.024 380.609C723.024 389.618 721.781 396.78 719.299 402.102 716.815 407.429 712.449 411.246 706.201 413.562 699.952 415.869 691.282 417.017 680.191 417.017ZM697.179 382.512 697.179 374.527 630.407 374.527C627.396 374.527 625.027 375.199 623.289 376.533 621.551 377.857 620.681 380.371 620.681 384.063L620.681 390.476C620.681 393.719 621.633 396.01 623.537 397.344 625.451 398.668 628.032 399.33 631.276 399.33L679.839 399.33C685.964 399.33 690.382 398.291 693.103 396.206 695.818 394.127 697.179 389.561 697.179 382.512Z" fill-rule="evenodd"/><path d="M770.036 417.017 743.036 417.017 743.036 292.017 770.036 292.017Z" fill-rule="evenodd"/><path d="M942.039 323.017 879.9 411.127C878.041 413.693 875.777 415.811 873.108 417.483 870.434 419.171 866.779 420.017 862.143 420.017 857.376 420.017 853.69 419.197 851.073 417.566 848.467 415.946 846.177 413.801 844.199 411.127L782.039 323.017 813.046 323.017 862.475 395.279 911.405 323.017Z" fill-rule="evenodd"/><path d="M1014.88 417.017 963.646 417.017C954.564 417.017 947.516 416.014 942.501 413.997 937.496 411.97 933.998 409.11 932.011 405.412 930.035 401.704 929.05 397.303 929.05 392.214L929.05 383.381C929.05 378.059 929.978 373.575 931.845 369.934 933.706 366.293 936.995 363.496 941.708 361.536 946.432 359.565 953.167 358.577 961.915 358.577L1032 358.577 1032 356.488C1032 350.479 1030.78 346.465 1028.33 344.448 1025.88 342.421 1021.75 341.407 1015.93 341.407L990.047 341.407 990.047 323.017 1015.93 323.017C1031.08 323.017 1041.89 325.799 1048.35 331.354 1054.82 336.898 1058.05 345.684 1058.05 357.708L1058.05 380.609C1058.05 389.618 1056.8 396.78 1054.3 402.102 1051.79 407.429 1047.39 411.246 1041.1 413.562 1034.8 415.869 1026.06 417.017 1014.88 417.017ZM1032 382.512 1032 374.527 964.71 374.527C961.675 374.527 959.288 375.199 957.536 376.533 955.784 377.857 954.908 380.371 954.908 384.063L954.908 390.476C954.908 393.719 955.868 396.01 957.786 397.344 959.715 398.668 962.317 399.33 965.585 399.33L1014.53 399.33C1020.7 399.33 1025.15 398.291 1027.9 396.206 1030.63 394.127 1032 389.561 1032 382.512Z" fill-rule="evenodd"/><path d="M1102.96 417.017 1077.06 417.017 1077.06 362.57C1077.06 348.462 1080.45 338.346 1087.22 332.223 1093.99 326.089 1105.32 323.017 1121.2 323.017L1138.06 323.017 1138.06 344.014 1121.89 344.014C1114.71 344.014 1109.76 345.255 1107.04 347.738 1104.32 350.22 1102.96 355.221 1102.96 362.735Z" fill-rule="evenodd"/><path d="M1273.07 379.554 1176.03 379.554 1176.03 383.898C1176.03 389.566 1177.13 393.243 1179.33 394.924 1181.53 396.594 1185.65 397.427 1191.7 397.427L1222.37 397.427 1222.37 417.017 1191.7 417.017C1176.72 417.017 1166.03 414.183 1159.65 408.515 1153.26 402.847 1150.07 393.776 1150.07 381.291L1150.07 359.612C1150.07 350.484 1151.31 343.264 1153.81 337.953 1156.3 332.631 1160.69 328.809 1166.96 326.492 1173.24 324.176 1181.89 323.017 1192.92 323.017L1238.57 323.017C1247.63 323.017 1254.65 324.124 1259.64 326.327 1264.64 328.52 1268.13 331.555 1270.1 335.429 1272.07 339.308 1273.07 343.724 1273.07 348.689ZM1247.11 362.922 1247.11 350.779C1247.11 347.65 1246.32 345.565 1244.76 344.531 1243.19 343.486 1240.44 342.959 1236.49 342.959L1193.28 342.959C1188.96 342.959 1185.54 343.249 1182.99 343.828 1180.44 344.407 1178.64 345.767 1177.59 347.903 1176.55 350.044 1176.03 353.364 1176.03 357.874L1176.03 362.922Z" fill-rule="evenodd"/><path d="M1414.08 417.017 1387.97 417.017 1387.97 364.639C1387.97 359.441 1387.39 355.428 1386.22 352.599 1385.06 349.76 1382.93 347.82 1379.82 346.786 1376.73 345.741 1372.38 345.214 1366.78 345.214L1338.4 345.214C1332.91 345.214 1328.62 345.741 1325.52 346.786 1322.43 347.82 1320.27 349.76 1319.04 352.599 1317.82 355.428 1317.2 359.441 1317.2 364.639L1317.2 417.017 1291.08 417.017 1291.08 363.77C1291.08 353.716 1292.42 345.721 1295.11 339.773 1297.8 333.815 1302.47 329.533 1309.14 326.927 1315.79 324.32 1324.96 323.017 1336.64 323.017L1368.35 323.017C1380.15 323.017 1389.38 324.32 1396.04 326.927 1402.7 329.533 1407.37 333.815 1410.05 339.773 1412.73 345.721 1414.08 353.716 1414.08 363.77Z" fill-rule="evenodd"/><path d="M1466.1 417.017 1439.42 417.017 1439.42 343.723 1426.09 343.723 1426.09 322.643 1439.42 322.643 1439.42 296.017 1466.1 296.017 1466.1 322.643 1496.09 322.643 1496.09 343.723 1466.1 343.723Z" fill-rule="evenodd"/><path d="M1584.74 417.017 1553.27 417.017C1541.68 417.017 1532.59 415.724 1525.99 413.128 1519.38 410.522 1514.74 406.239 1512.08 400.282 1509.42 394.324 1508.1 386.375 1508.1 376.43L1508.1 363.77C1508.1 353.716 1509.42 345.721 1512.08 339.773 1514.74 333.815 1519.38 329.533 1525.99 326.927 1532.59 324.32 1541.68 323.017 1553.27 323.017L1584.74 323.017C1596.43 323.017 1605.58 324.351 1612.18 327.01 1618.79 329.673 1623.43 333.981 1626.09 339.939 1628.76 345.886 1630.1 353.892 1630.1 363.956L1630.1 376.43C1630.1 386.375 1628.76 394.324 1626.09 400.282 1623.43 406.239 1618.79 410.522 1612.18 413.128 1605.58 415.724 1596.43 417.017 1584.74 417.017ZM1604.18 375.747 1604.18 364.639C1604.18 359.332 1603.57 355.288 1602.36 352.516 1601.14 349.734 1598.88 347.82 1595.58 346.786 1592.29 345.741 1587.51 345.214 1581.25 345.214L1556.75 345.214C1550.61 345.214 1545.89 345.741 1542.59 346.786 1539.28 347.82 1537.02 349.734 1535.81 352.516 1534.59 355.288 1533.99 359.332 1533.99 364.639L1533.99 375.747C1533.99 380.95 1534.59 384.932 1535.81 387.704 1537.02 390.476 1539.28 392.416 1542.59 393.517 1545.89 394.624 1550.61 395.172 1556.75 395.172L1581.25 395.172C1587.51 395.172 1592.29 394.624 1595.58 393.517 1598.88 392.416 1601.14 390.476 1602.36 387.704 1603.57 384.932 1604.18 380.95 1604.18 375.747Z" fill-rule="evenodd"/></g></svg>