<svg width="1216" height="134" xmlns="http://www.w3.org/2000/svg" xmlns:xlink="http://www.w3.org/1999/xlink" overflow="hidden"><defs><clipPath id="clip0"><rect x="215" y="473" width="1216" height="134"/></clipPath><clipPath id="clip1"><rect x="216" y="475" width="91" height="103"/></clipPath><clipPath id="clip2"><rect x="1003" y="500" width="428" height="72"/></clipPath><clipPath id="clip3"><rect x="1003" y="500" width="428" height="72"/></clipPath></defs><g clip-path="url(#clip0)" transform="translate(-215 -473)"><g><g><g><g clip-path="url(#clip1)"><path d="M41.7208 87.6729 26.4644 135.971 16.0938 136.099C10.4363 136.143 5.76421 136.056 5.76421 135.886 5.76421 135.673 12.4918 115.314 20.7632 90.5878 28.9935 65.8587 35.6363 45.4595 35.5077 45.2898 35.2504 44.8601 31.9933 43.831 31.736 44.0883 31.6484 44.1759 24.4938 65.5604 15.8776 91.5729 1.90772 133.743 0.279179 138.971 0.793741 139.699 1.3521 140.514 1.95151 140.558 15.4506 140.471 23.1636 140.471 29.5491 140.385 29.5929 140.342 29.5929 140.301 35.6363 121.273 42.9634 98.0437 50.2904 74.8168 56.5473 55.1021 56.8484 54.2455 57.4067 52.7045 57.5764 53.1752 71.2917 94.0148 78.92 116.73 85.0895 135.456 84.9606 135.544 84.8317 135.673 80.376 135.628 75.0193 135.5L65.3332 135.199 61.3919 123.03 57.4478 110.902 48.6208 110.987 39.8349 111.116 39.8349 114.972 47.1209 115.186 54.3631 115.402 62.1637 139.4 76.4347 139.786C84.276 139.956 90.7903 140.043 90.9192 139.915 91.1764 139.614 57.5764 39.3313 57.2343 39.3313 57.1057 39.3313 50.1207 61.1017 41.7208 87.6729Z" transform="matrix(1.00324 0 0 1 215.789 436.33)"/></g><g><g><g><path d="M0.448875 0.0218963 3.07096 0.0218963 3.07096 101.733 0.448875 101.733Z" transform="matrix(1.00324 0 0 1 343.024 475.568)"/></g></g></g><g><path d="M49.2887 0 22.389 0C17.6211 0 13.9206-0.530986 11.2876-1.59843 8.66002-2.67135 6.82345-4.18494 5.78063-6.14192 4.74329-8.10438 4.22599-10.4336 4.22599-13.1269L4.22599-17.8017C4.22599-20.6182 4.71319-22.9912 5.69305-24.918 6.67017-26.8449 8.39726-28.3257 10.8715-29.363 13.3513-30.4058 16.8876-30.9286 21.4803-30.9286L58.2771-30.9286 58.2771-32.0344C58.2771-35.2148 57.6339-37.3388 56.3502-38.4062 55.0638-39.4791 52.8934-40.0156 49.8361-40.0156L36.2494-40.0156 36.2494-49.7485 49.8361-49.7485C57.7899-49.7485 63.4665-48.2759 66.8605-45.3364 70.2547-42.4022 71.9517-37.752 71.9517-31.3884L71.9517-19.2688C71.9517-14.5008 71.2945-10.7101 69.9807-7.89361 68.6669-5.07448 66.3568-3.05454 63.0505-1.82835 59.7441-0.607624 55.1569 0 49.2887 0ZM58.2771-18.2615 58.2771-22.4876 22.9474-22.4876C21.3544-22.4876 20.1008-22.1317 19.1812-21.4256 18.2615-20.7249 17.8017-19.3947 17.8017-17.4404L17.8017-14.0465C17.8017-12.3304 18.3053-11.1179 19.3126-10.4117 20.3253-9.71104 21.691-9.3607 23.4072-9.3607L49.1025-9.3607C52.3432-9.3607 54.6807-9.91081 56.1204-11.0139 57.5572-12.1142 58.2771-14.531 58.2771-18.2615Z" transform="matrix(1.00324 0 0 1 374.966 550.711)"/><path d="M19.3673 0 5.41935 0 5.41935-65.8095 19.3673-65.8095Z" transform="matrix(1.00324 0 0 1 452.124 550.711)"/><path d="M85.1659-49.7485 52.4089-3.30635C51.429-1.95425 50.2357-0.837533 48.8288 0.0437927 47.4193 0.933331 45.4924 1.37947 43.0482 1.37947 40.5356 1.37947 38.5923 0.947015 37.2128 0.0875854 35.8388-0.766372 34.6318-1.89677 33.589-3.30635L0.821116-49.7485 17.1667-49.7485 43.2234-11.6598 69.0173-49.7485Z" transform="matrix(1.00324 0 0 1 476.984 550.711)"/><path d="M49.2887 0 22.389 0C17.6211 0 13.9206-0.530986 11.2876-1.59843 8.66002-2.67135 6.82345-4.18494 5.78063-6.14192 4.74329-8.10438 4.22599-10.4336 4.22599-13.1269L4.22599-17.8017C4.22599-20.6182 4.71319-22.9912 5.69305-24.918 6.67017-26.8449 8.39726-28.3257 10.8715-29.363 13.3513-30.4058 16.8876-30.9286 21.4803-30.9286L58.2771-30.9286 58.2771-32.0344C58.2771-35.2148 57.6339-37.3388 56.3502-38.4062 55.0638-39.4791 52.8934-40.0156 49.8361-40.0156L36.2494-40.0156 36.2494-49.7485 49.8361-49.7485C57.7899-49.7485 63.4665-48.2759 66.8605-45.3364 70.2547-42.4022 71.9517-37.752 71.9517-31.3884L71.9517-19.2688C71.9517-14.5008 71.2945-10.7101 69.9807-7.89361 68.6669-5.07448 66.3568-3.05454 63.0505-1.82835 59.7441-0.607624 55.1569 0 49.2887 0ZM58.2771-18.2615 58.2771-22.4876 22.9474-22.4876C21.3544-22.4876 20.1008-22.1317 19.1812-21.4256 18.2615-20.7249 17.8017-19.3947 17.8017-17.4404L17.8017-14.0465C17.8017-12.3304 18.3053-11.1179 19.3126-10.4117 20.3253-9.71104 21.691-9.3607 23.4072-9.3607L49.1025-9.3607C52.3432-9.3607 54.6807-9.91081 56.1204-11.0139 57.5572-12.1142 58.2771-14.531 58.2771-18.2615Z" transform="matrix(1.00324 0 0 1 551.194 550.711)"/><path d="M19.0936 0 5.41935 0 5.41935-28.8156C5.41935-36.2822 7.20666-41.6359 10.7839-44.8766 14.3585-48.1227 20.3417-49.7485 28.728-49.7485L37.6288-49.7485 37.6288-38.6361 29.0893-38.6361C25.3012-38.6361 22.6873-37.9792 21.2504-36.6654 19.8107-35.3516 19.0936-32.7049 19.0936-28.728Z" transform="matrix(1.00324 0 0 1 627.891 550.711)"/><path d="M69.7508-19.8272 18.6338-19.8272 18.6338-17.528C18.6338-14.5282 19.2141-12.5822 20.3745-11.6926 21.5351-10.8086 23.7055-10.3679 26.8887-10.3679L43.0482-10.3679 43.0482 0 26.8887 0C18.9978 0 13.3704-1.4999 10.0066-4.4997 6.64006-7.49948 4.95952-12.3003 4.95952-18.9075L4.95952-30.3812C4.95952-35.212 5.61641-39.0329 6.93019-41.8439 8.24395-44.6603 10.554-46.683 13.8603-47.9092 17.1667-49.1354 21.7239-49.7485 27.5347-49.7485L51.5768-49.7485C56.3502-49.7485 60.0507-49.1628 62.6783-47.9968 65.3113-46.8363 67.1478-45.2296 68.1852-43.1796 69.228-41.1268 69.7508-38.7894 69.7508-36.1618ZM56.0765-28.6295 56.0765-35.056C56.0765-36.7119 55.6632-37.815 54.8394-38.3624 54.0128-38.9153 52.5621-39.1945 50.482-39.1945L27.7208-39.1945C25.449-39.1945 23.6426-39.0412 22.3014-38.7346 20.9576-38.4281 20.0078-37.7082 19.4549-36.5778 18.9075-35.4447 18.6338-33.6875 18.6338-31.3008L18.6338-28.6295Z" transform="matrix(1.00324 0 0 1 667.022 550.711)"/><path d="M69.5646 0 55.8904 0 55.8904-27.7208C55.8904-30.4715 55.5838-32.5954 54.9707-34.0926 54.3631-35.5952 53.2464-36.6216 51.6206-37.1691 50.0003-37.7219 47.7231-38.0011 44.789-38.0011L29.9213-38.0011C27.0447-38.0011 24.7976-37.7219 23.1773-37.1691 21.5569-36.6216 20.4238-35.5952 19.7834-34.0926 19.1401-32.5954 18.8199-30.4715 18.8199-27.7208L18.8199 0 5.13469 0 5.13469-28.1806C5.13469-33.5014 5.83811-37.7329 7.24772-40.8805 8.65455-44.0336 11.1042-46.2998 14.5939-47.6793 18.0809-49.0587 22.8844-49.7485 29.0017-49.7485L45.6101-49.7485C51.7903-49.7485 56.6267-49.0587 60.1164-47.6793 63.6034-46.2998 66.0503-44.0336 67.4517-40.8805 68.8585-37.7329 69.5646-33.5014 69.5646-28.1806Z" transform="matrix(1.00324 0 0 1 741.51 550.711)"/><path d="M22.2138 0 8.25489 0 8.25489-38.6361 1.28093-38.6361 1.28093-49.7485 8.25489-49.7485 8.25489-63.784 22.2138-63.784 22.2138-49.7485 37.9026-49.7485 37.9026-38.6361 22.2138-38.6361Z" transform="matrix(1.00324 0 0 1 816.458 550.711)"/><path d="M45.4349 0 28.8156 0C22.6983 0 17.8948-0.68426 14.4078-2.05826 10.918-3.43773 8.46838-5.70399 7.06155-8.85705 5.6602-12.0101 4.95952-16.217 4.95952-21.4803L4.95952-28.1806C4.95952-33.5014 5.6602-37.7329 7.06155-40.8805 8.46838-44.0336 10.918-46.2998 14.4078-47.6793 17.8948-49.0587 22.6983-49.7485 28.8156-49.7485L45.4349-49.7485C51.6096-49.7485 56.4406-49.0423 59.9302-47.6355 63.4173-46.2259 65.8669-43.946 67.2765-40.7929 68.6833-37.6453 69.3895-33.4083 69.3895-28.082L69.3895-21.4803C69.3895-16.217 68.6833-12.0101 67.2765-8.85705 65.8669-5.70399 63.4173-3.43773 59.9302-2.05826 56.4406-0.68426 51.6096 0 45.4349 0ZM55.7043-21.8416 55.7043-27.7208C55.7043-30.529 55.3813-32.6693 54.7408-34.1364 54.0976-35.6089 52.9043-36.6216 51.1608-37.1691 49.4228-37.7219 46.902-38.0011 43.5956-38.0011L30.6549-38.0011C27.4142-38.0011 24.9208-37.7219 23.1773-37.1691 21.431-36.6216 20.2377-35.6089 19.5973-34.1364 18.954-32.6693 18.6338-30.529 18.6338-27.7208L18.6338-21.8416C18.6338-19.0881 18.954-16.9806 19.5973-15.5135 20.2377-14.0465 21.431-13.0201 23.1773-12.4371 24.9208-11.8514 27.4142-11.5613 30.6549-11.5613L43.5956-11.5613C46.902-11.5613 49.4228-11.8514 51.1608-12.4371 52.9043-13.0201 54.0976-14.0465 54.7408-15.5135 55.3813-16.9806 55.7043-19.0881 55.7043-21.8416Z" transform="matrix(1.00324 0 0 1 855.681 550.711)"/></g><path d="M11.8131-3.74427 4.46685-3.74427 3.12023 0 0.799213 0 6.8864-16.7397 9.41543-16.7397 15.4807 0 13.1597 0ZM11.1781-5.52882 8.13451-14.0355 5.0909-5.52882ZM10.4993-20.484 5.3646-17.7251 5.3646-19.3673 10.4993-22.389Z" transform="matrix(1.00324 0 0 1 431.081 604.52)"/><path d="M4.06177-17.8674 4.06177 0 1.86119 0 1.86119-17.8674Z" transform="matrix(1.00324 0 0 1 460.743 604.52)"/><path d="M6.78787-2.02541 10.8934-13.2363 13.2363-13.2363 8.04692 0 5.48503 0 0.284652-13.2363 2.66041-13.2363Z" transform="matrix(1.00324 0 0 1 480.032 604.52)"/><path d="M1.04008-6.66743C1.04008-8.01679 1.31378-9.20193 1.86119-10.2256 2.4086-11.2465 3.15855-12.0375 4.11651-12.6014 5.07174-13.1707 6.13645-13.4553 7.31338-13.4553 8.47392-13.4553 9.48108-13.2035 10.3351-12.6999 11.1891-12.2018 11.824-11.5749 12.2401-10.8168L12.2401-13.2363 14.4625-13.2363 14.4625 0 12.2401 0 12.2401-2.46333C11.8076-1.68876 11.1617-1.04555 10.3022-0.53646 9.44009-0.0328445 8.43559 0.218963 7.29145 0.218963 6.11455 0.218963 5.05258-0.068426 4.10557-0.645942 3.15581-1.22893 2.4086-2.04183 1.86119-3.08738 1.31378-4.13841 1.04008-5.33176 1.04008-6.66743ZM12.2401-6.64554C12.2401-7.63632 12.0375-8.50125 11.6379-9.24026 11.2356-9.98473 10.6909-10.554 10.0066-10.9482 9.32784-11.3423 8.57517-11.5394 7.7513-11.5394 6.93293-11.5394 6.18571-11.345 5.50693-10.9591 4.82814-10.5787 4.28621-10.0176 3.8866-9.27312 3.48426-8.53411 3.28445-7.66645 3.28445-6.66743 3.28445-5.652 3.48426-4.76793 3.8866-4.01798 4.28621-3.27351 4.82814-2.7042 5.50693-2.31007 6.18571-1.91593 6.93293-1.71886 7.7513-1.71886 8.57517-1.71886 9.32784-1.91593 10.0066-2.31007 10.6909-2.7042 11.2356-3.27351 11.6379-4.01798 12.0375-4.76793 12.2401-5.64378 12.2401-6.64554Z" transform="matrix(1.00324 0 0 1 506.956 604.52)"/><path d="M4.06177-11.0905C4.4477-11.8404 4.99784-12.4262 5.71494-12.8422 6.42931-13.2637 7.30245-13.4772 8.33154-13.4772L8.33154-11.2109 7.7513-11.2109C5.2907-11.2109 4.06177-9.86975 4.06177-7.19293L4.06177 0 1.86119 0 1.86119-13.2363 4.06177-13.2363Z" transform="matrix(1.00324 0 0 1 536.665 604.52)"/><path d="M7.63086 0.218963C6.38826 0.218963 5.26607-0.0602149 4.25883-0.624046 3.2516-1.19335 2.46333-1.99531 1.89403-3.03264 1.32473-4.06725 1.04008-5.27155 1.04008-6.64554 1.04008-7.99493 1.3302-9.18826 1.91593-10.2256 2.50713-11.2684 3.30909-12.0677 4.32453-12.6232 5.33723-13.1761 6.4731-13.4553 7.72937-13.4553 8.98296-13.4553 10.1188-13.1761 11.1343-12.6232 12.147-12.0677 12.9462-11.2711 13.5319-10.2366 14.1231-9.20739 14.4187-8.0086 14.4187-6.64554 14.4187-5.27155 14.1149-4.06725 13.51-3.03264 12.9106-1.99531 12.0922-1.19335 11.0576-0.624046 10.0285-0.0602149 8.88445 0.218963 7.63086 0.218963ZM7.63086-1.71886C8.41913-1.71886 9.15814-1.89951 9.85335-2.26627 10.5458-2.63851 11.1042-3.19139 11.5284-3.9304 11.9581-4.67487 12.1744-5.57809 12.1744-6.64554 12.1744-7.70205 11.9609-8.59976 11.5394-9.33877 11.1233-10.0832 10.576-10.6334 9.89715-10.992 9.22386-11.356 8.49578-11.5394 7.70751-11.5394 6.89735-11.5394 6.15561-11.356 5.48503-10.992 4.81993-10.6334 4.28621-10.0832 3.8866-9.33877 3.48426-8.59976 3.28445-7.70205 3.28445-6.64554 3.28445-5.56441 3.48152-4.65297 3.87565-3.90849 4.26979-3.1695 4.7953-2.61935 5.45219-2.25532 6.11455-1.89677 6.8426-1.71886 7.63086-1.71886Z" transform="matrix(1.00324 0 0 1 559.032 604.52)"/><path d="M15.0975 0 12.8969 0 4.06177-13.4006 4.06177 0 1.86119 0 1.86119-16.8602 4.06177-16.8602 12.8969-3.48152 12.8969-16.8602 15.0975-16.8602Z" transform="matrix(1.00324 0 0 1 607.669 604.52)"/><path d="M1.04008-6.66743C1.04008-8.01679 1.31378-9.20193 1.86119-10.2256 2.4086-11.2465 3.15855-12.0375 4.11651-12.6014 5.07174-13.1707 6.13645-13.4553 7.31338-13.4553 8.47392-13.4553 9.48108-13.2035 10.3351-12.6999 11.1891-12.2018 11.824-11.5749 12.2401-10.8168L12.2401-13.2363 14.4625-13.2363 14.4625 0 12.2401 0 12.2401-2.46333C11.8076-1.68876 11.1617-1.04555 10.3022-0.53646 9.44009-0.0328445 8.43559 0.218963 7.29145 0.218963 6.11455 0.218963 5.05258-0.068426 4.10557-0.645942 3.15581-1.22893 2.4086-2.04183 1.86119-3.08738 1.31378-4.13841 1.04008-5.33176 1.04008-6.66743ZM12.2401-6.64554C12.2401-7.63632 12.0375-8.50125 11.6379-9.24026 11.2356-9.98473 10.6909-10.554 10.0066-10.9482 9.32784-11.3423 8.57517-11.5394 7.7513-11.5394 6.93293-11.5394 6.18571-11.345 5.50693-10.9591 4.82814-10.5787 4.28621-10.0176 3.8866-9.27312 3.48426-8.53411 3.28445-7.66645 3.28445-6.66743 3.28445-5.652 3.48426-4.76793 3.8866-4.01798 4.28621-3.27351 4.82814-2.7042 5.50693-2.31007 6.18571-1.91593 6.93293-1.71886 7.7513-1.71886 8.57517-1.71886 9.32784-1.91593 10.0066-2.31007 10.6909-2.7042 11.2356-3.27351 11.6379-4.01798 12.0375-4.76793 12.2401-5.64378 12.2401-6.64554Z" transform="matrix(1.00324 0 0 1 638.033 604.52)"/><path d="M6.54701 0.218963C5.53156 0.218963 4.62013 0.0465297 3.80996-0.295601 3.00527-0.645942 2.37028-1.1304 1.90498-1.75171 1.43695-2.37028 1.1824-3.08191 1.13861-3.8866L3.40488-3.8866C3.47057-3.22971 3.77985-2.68778 4.33548-2.26627 4.88836-1.85024 5.61915-1.64223 6.52511-1.64223 7.35717-1.64223 8.01406-1.82287 8.49578-2.18963 8.98296-2.56187 9.22932-3.03264 9.22932-3.60194 9.22932-4.17673 8.9693-4.6037 8.45199-4.88288 7.94014-5.16754 7.14367-5.44672 6.06529-5.7259 5.07995-5.98044 4.27526-6.24046 3.65669-6.50321 3.03538-6.77144 2.50166-7.1656 2.05826-7.68565 1.62033-8.21116 1.40137-8.90084 1.40137-9.75484 1.40137-10.4336 1.60117-11.0522 2.00352-11.616 2.40313-12.1771 2.97243-12.6232 3.71143-12.9517 4.45591-13.2856 5.30165-13.4553 6.25141-13.4553 7.71844-13.4553 8.90084-13.0831 9.79863-12.3386 10.7018-11.5996 11.1891-10.5869 11.2547-9.29498L9.05415-9.29498C9.01036-9.98746 8.73114-10.5431 8.22209-10.9591 7.71844-11.3806 7.03969-11.5941 6.18571-11.5941 5.39744-11.5941 4.76793-11.4217 4.30263-11.0795 3.8346-10.7429 3.60194-10.3022 3.60194-9.75484 3.60194-9.32238 3.7388-8.96657 4.01798-8.68188 4.30263-8.39726 4.65571-8.1701 5.07995-8.00313 5.50967-7.83342 6.10361-7.64459 6.86451-7.43383 7.81149-7.17653 8.58337-6.92472 9.1746-6.67838 9.77123-6.42931 10.2831-6.05433 10.7073-5.55073 11.137-5.05258 11.3587-4.4039 11.3752-3.60194 11.3752-2.87116 11.1726-2.217 10.773-1.64223 10.3707-1.06471 9.80136-0.607624 9.06508-0.273704 8.33427 0.0547408 7.49401 0.218963 6.54701 0.218963Z" transform="matrix(1.00324 0 0 1 667.742 604.52)"/><path d="M1.04008-6.64554C1.04008-8.0086 1.31378-9.20193 1.86119-10.2256 2.4086-11.2465 3.16676-12.0375 4.13841-12.6014 5.11553-13.1707 6.23224-13.4553 7.48855-13.4553 9.11434-13.4553 10.4555-13.0611 11.5065-12.2729 12.563-11.4846 13.261-10.3898 13.5976-8.98843L11.2328-8.98843C11.0056-9.79043 10.565-10.4254 9.90808-10.8934 9.25665-11.3587 8.45199-11.5941 7.48855-11.5941 6.23224-11.5941 5.2168-11.1617 4.44496-10.3022 3.67037-9.44009 3.28445-8.22209 3.28445-6.64554 3.28445-5.0471 3.67037-3.8127 4.44496-2.94505 5.2168-2.07468 6.23224-1.64223 7.48855-1.64223 8.45199-1.64223 9.25392-1.86666 9.89715-2.32101 10.5458-2.77262 10.992-3.41583 11.2328-4.24789L13.5976-4.24789C13.2391-2.89579 12.5274-1.81192 11.4628-0.996287 10.4035-0.186119 9.07875 0.218963 7.48855 0.218963 6.23224 0.218963 5.11553-0.0602149 4.13841-0.624046 3.16676-1.19335 2.4086-1.99257 1.86119-3.02169 1.31378-4.05082 1.04008-5.25786 1.04008-6.64554Z" transform="matrix(1.00324 0 0 1 693.721 604.52)"/><path d="M2.9998-15.3822C2.57556-15.3822 2.217-15.5273 1.92688-15.8201 1.64223-16.1102 1.4999-16.466 1.4999-16.8821 1.4999-17.2981 1.64223-17.6512 1.92688-17.9441 2.217-18.2341 2.57556-18.382 2.9998-18.382 3.39941-18.382 3.7388-18.2341 4.01798-17.9441 4.30263-17.6512 4.44496-17.2981 4.44496-16.8821 4.44496-16.466 4.30263-16.1102 4.01798-15.8201 3.7388-15.5273 3.39941-15.3822 2.9998-15.3822ZM4.06177-13.2363 4.06177 0 1.86119 0 1.86119-13.2363Z" transform="matrix(1.00324 0 0 1 721.758 604.52)"/><path d="M17.7798-13.4772C18.809-13.4772 19.7231-13.261 20.5278-12.8313 21.3298-12.407 21.9648-11.7693 22.4328-10.9153 22.8981-10.0614 23.1335-9.02402 23.1335-7.80603L23.1335 0 20.9658 0 20.9658-7.48855C20.9658-8.80779 20.6373-9.82049 19.9804-10.5212 19.329-11.2219 18.4504-11.5722 17.3419-11.5722 16.1951-11.5722 15.2836-11.2027 14.6049-10.4665 13.9315-9.73564 13.5976-8.67642 13.5976-7.29145L13.5976 0 11.419 0 11.419-7.48855C11.419-8.80779 11.0932-9.82049 10.4445-10.5212 9.79316-11.2219 8.91458-11.5722 7.80603-11.5722 6.65923-11.5722 5.74779-11.2027 5.06901-10.4665 4.39569-9.73564 4.06177-8.67642 4.06177-7.29145L4.06177 0 1.86119 0 1.86119-13.2363 4.06177-13.2363 4.06177-11.3314C4.49149-12.0156 5.07174-12.5466 5.80253-12.9188 6.53879-13.2911 7.34897-13.4772 8.23302-13.4772 9.3415-13.4772 10.3241-13.2254 11.1781-12.7217 12.0321-12.2236 12.6697-11.4955 13.094-10.5321 13.458-11.4655 14.0684-12.188 14.9224-12.6999 15.7763-13.2172 16.7288-13.4772 17.7798-13.4772Z" transform="matrix(1.00324 0 0 1 741.048 604.52)"/><path d="M13.937-7.12728C13.937-6.70302 13.9097-6.25688 13.8603-5.79158L3.28445-5.79158C3.36382-4.49149 3.80996-3.47331 4.62013-2.73704 5.43576-2.00625 6.42658-1.64223 7.58706-1.64223 8.53411-1.64223 9.32784-1.86119 9.96287-2.29912 10.5978-2.74251 11.0412-3.33919 11.2985-4.08366L13.6742-4.08366C13.3157-2.81368 12.6041-1.77634 11.5394-0.974384 10.4801-0.177908 9.1636 0.218963 7.58706 0.218963 6.33078 0.218963 5.20586-0.0602149 4.21504-0.624046 3.2215-1.19335 2.44418-1.99531 1.88309-3.03264 1.31925-4.06725 1.04008-5.27155 1.04008-6.64554 1.04008-8.0086 1.31378-9.20739 1.86119-10.2366 2.4086-11.2711 3.17497-12.0677 4.1603-12.6232 5.15111-13.1761 6.2952-13.4553 7.58706-13.4553 8.84066-13.4553 9.95187-13.1816 10.9153-12.6342 11.8787-12.0868 12.6232-11.3314 13.1487-10.3679 13.6742-9.40996 13.937-8.33154 13.937-7.12728ZM11.6598-7.58706C11.6598-8.41913 11.4737-9.13627 11.1015-9.74384 10.7347-10.3487 10.2366-10.8086 9.60153-11.1233 8.96657-11.4354 8.26042-11.5941 7.48855-11.5941 6.37731-11.5941 5.43303-11.2383 4.65297-10.5321 3.87018-9.82322 3.4213-8.84066 3.30635-7.58706Z" transform="matrix(1.00324 0 0 1 779.336 604.52)"/><path d="M8.30968-13.4772C9.91354-13.4772 11.2164-12.9873 12.2182-12.0101 13.2172-11.0385 13.718-9.63712 13.718-7.80603L13.718 0 11.5394 0 11.5394-7.48855C11.5394-8.80779 11.2109-9.82049 10.554-10.5212 9.89715-11.2219 8.9939-11.5722 7.84982-11.5722 6.68934-11.5722 5.76421-11.2055 5.07995-10.4774 4.40116-9.75484 4.06177-8.69835 4.06177-7.31338L4.06177 0 1.86119 0 1.86119-13.2363 4.06177-13.2363 4.06177-11.3532C4.49149-12.0239 5.07995-12.5466 5.82443-12.9188 6.57437-13.2911 7.4037-13.4772 8.30968-13.4772Z" transform="matrix(1.00324 0 0 1 807.688 604.52)"/><path d="M4.54349-11.419 4.54349-3.62385C4.54349-2.98064 4.6776-2.52355 4.94857-2.25532 5.22501-1.99257 5.69852-1.86119 6.37183-1.86119L7.99213-1.86119 7.99213 0 6.01054 0C4.78983 0 3.87565-0.279179 3.26255-0.843006 2.64946-1.40411 2.34291-2.33196 2.34291-3.62385L2.34291-11.419 0.624046-11.419 0.624046-13.2363 2.34291-13.2363 2.34291-16.5646 4.54349-16.5646 4.54349-13.2363 7.99213-13.2363 7.99213-11.419Z" transform="matrix(1.00324 0 0 1 836.526 604.52)"/><path d="M7.63086 0.218963C6.38826 0.218963 5.26607-0.0602149 4.25883-0.624046 3.2516-1.19335 2.46333-1.99531 1.89403-3.03264 1.32473-4.06725 1.04008-5.27155 1.04008-6.64554 1.04008-7.99493 1.3302-9.18826 1.91593-10.2256 2.50713-11.2684 3.30909-12.0677 4.32453-12.6232 5.33723-13.1761 6.4731-13.4553 7.72937-13.4553 8.98296-13.4553 10.1188-13.1761 11.1343-12.6232 12.147-12.0677 12.9462-11.2711 13.5319-10.2366 14.1231-9.20739 14.4187-8.0086 14.4187-6.64554 14.4187-5.27155 14.1149-4.06725 13.51-3.03264 12.9106-1.99531 12.0922-1.19335 11.0576-0.624046 10.0285-0.0602149 8.88445 0.218963 7.63086 0.218963ZM7.63086-1.71886C8.41913-1.71886 9.15814-1.89951 9.85335-2.26627 10.5458-2.63851 11.1042-3.19139 11.5284-3.9304 11.9581-4.67487 12.1744-5.57809 12.1744-6.64554 12.1744-7.70205 11.9609-8.59976 11.5394-9.33877 11.1233-10.0832 10.576-10.6334 9.89715-10.992 9.22386-11.356 8.49578-11.5394 7.70751-11.5394 6.89735-11.5394 6.15561-11.356 5.48503-10.992 4.81993-10.6334 4.28621-10.0832 3.8866-9.33877 3.48426-8.59976 3.28445-7.70205 3.28445-6.64554 3.28445-5.56441 3.48152-4.65297 3.87565-3.90849 4.26979-3.1695 4.7953-2.61935 5.45219-2.25532 6.11455-1.89677 6.8426-1.71886 7.63086-1.71886Z" transform="matrix(1.00324 0 0 1 858.675 604.52)"/></g></g></g><rect x="959" y="474" width="2" height="132"/><g clip-path="url(#clip2)"><g clip-path="url(#clip3)"><g><text font-family="Poppins,Poppins_MSFontService,sans-serif" font-weight="400" font-size="80" transform="matrix(1.00184 0 0 1 1000.12 566)">Public Files</text></g></g></g></g></svg>