<svg width="172" height="193" xmlns="http://www.w3.org/2000/svg" xmlns:xlink="http://www.w3.org/1999/xlink" overflow="hidden"><defs><clipPath id="clip0"><rect x="286" y="274" width="172" height="193"/></clipPath></defs><g clip-path="url(#clip0)" transform="translate(-286 -274)"><path d="M364.189 366.219 335.099 458.355 315.326 458.6C304.538 458.684 295.63 458.517 295.63 458.193 295.63 457.786 308.458 418.949 324.229 371.78 339.922 324.605 352.588 285.691 352.343 285.367 351.852 284.547 345.642 282.584 345.151 283.075 344.984 283.242 331.342 324.036 314.913 373.659 288.276 454.105 285.171 464.077 286.152 465.466 287.217 467.022 288.36 467.106 314.099 466.939 328.806 466.939 340.981 466.776 341.065 466.693 341.065 466.615 352.588 430.316 366.558 386.003 380.529 341.694 392.459 304.085 393.033 302.451 394.098 299.511 394.422 300.409 420.573 378.317 435.118 421.649 446.882 457.373 446.636 457.54 446.39 457.786 437.894 457.702 427.68 457.457L409.212 456.882 401.697 433.668 394.176 410.532 377.346 410.694 360.593 410.94 360.593 418.297 374.486 418.704 388.295 419.116 403.168 464.897 430.379 465.633C445.331 465.957 457.751 466.124 457.997 465.879 458.488 465.305 394.422 274 393.769 274 393.524 274 380.206 315.531 364.189 366.219Z" fill-rule="evenodd"/></g></svg>